<svg enable-background="new 0 0 291.4 343.2" height="343.181348" viewBox="0 0 291.4 343.2" width="291.391128" xmlns="http://www.w3.org/2000/svg"><path d="m152.7 119.8c.1.1.1.3 0 .4 0 .1-.1.2-.3.3-2 1.2-3.7 4-4.9 8.3-1 3.5-1.5 7.2-1.7 9 0 .1-.1.2-.2.2s-.2-.1-.2-.2c-.2-1.9-.7-5.5-1.7-9-1.2-4.3-2.9-7.1-4.9-8.3-.1-.1-.2-.2-.3-.3 0-.1 0-.3 0-.4l6.6-16.4c.1-.2.2-.3.4-.3s.4.1.4.3zm-61.3 99.8c0-.1-.1-.2-.2-.3s-.2-.1-.4-.1l-19.2 2.7c-.2 0-.3 0-.4-.1s-.2-.2-.2-.4l1.5-21.2c0-.1 0-.3-.1-.3-.1-.1-.2-.2-.3-.2l-19.8-1.4c-.2 0-.3-.1-.4-.2s-.1-.3 0-.4l8.4-21.7c0-.1 0-.3 0-.4s-.1-.2-.3-.3l-20.6-8.1c-.2-.1-.3-.2-.3-.3s0-.3.1-.4l16.9-19.5c.1-.1.1-.2.1-.3s-.1-.2-.2-.3l-18.8-16.4c-.1-.1-.2-.3-.2-.4s.1-.3.3-.4l24.7-13.1c.1-.1.2-.2.2-.3s0-.2 0-.4l-12.8-25.3c-.1-.1-.1-.3 0-.4s.2-.2.4-.2l31.4-3.5c.1 0 .3-.1.3-.2.1-.1.1-.2.1-.4-.2-1.3-.9-5.1-1.6-10.3s-1.6-11.9-2.1-18.9c0-.2-.1-.3-.3-.4s-.3-.1-.5.1c-12.5 10.1-22.8 22.8-30 37.4-7.1 14.5-11.1 30.8-11.1 48.2 0 20.8 5.8 40.2 15.8 56.8 10.1 16.6 24.4 30.3 41.4 39.6.2.1.4.1.5 0s.2-.3.2-.5zm-15.4-118.7c0-3.1-2.5-5.6-5.6-5.6s-5.6 2.5-5.6 5.6 2.5 5.6 5.6 5.6c3.1.1 5.6-2.5 5.6-5.6zm-12.1 31c0-2.9-2.4-5.3-5.3-5.3s-5.3 2.4-5.3 5.3 2.4 5.3 5.3 5.3 5.3-2.4 5.3-5.3zm-10.4 30.4c0 2.8 2.2 5 5 5s5-2.2 5-5-2.2-5-5-5-5 2.2-5 5zm14 31.2c2.6 0 4.8-2.1 4.8-4.8 0-2.6-2.1-4.8-4.8-4.8s-4.8 2.1-4.8 4.8 2.1 4.8 4.8 4.8zm10.7 15.9c0 2.5 2 4.5 4.5 4.5s4.5-2 4.5-4.5-2-4.5-4.5-4.5-4.5 2-4.5 4.5zm166-116.2c-7.1-14.6-17.4-27.3-30-37.4-.1-.1-.3-.1-.5-.1-.2.1-.3.2-.3.4-.6 7-1.4 13.7-2.1 18.9s-1.4 9-1.6 10.3c0 .1 0 .3.1.4s.2.2.3.2l31.5 3.4c.2 0 .3.1.4.2s.1.3 0 .4l-12.8 25.4c-.1.1-.1.2 0 .4 0 .1.1.2.2.3l24.7 13.1c.1.1.2.2.3.4s0 .3-.2.4l-18.9 16.3c-.1.1-.2.2-.2.3s0 .2.1.3l16.7 19.4c.1.1.1.3.1.4s-.1.3-.3.3l-20.6 8.1c-.1 0-.2.1-.3.3 0 .1-.1.2 0 .4l8.4 21.7c.1.1 0 .3 0 .4-.1.1-.2.2-.4.2l-19.8 1.4c-.1 0-.2.1-.3.2s-.1.2-.1.3l1.5 21.2c0 .2-.1.3-.2.4s-.2.1-.4.1l-19.2-2.7c-.1 0-.3 0-.4.1s-.2.2-.2.3l-2.5 17.8c0 .2.1.4.2.5s.3.1.5 0c17.1-9.3 31.4-23 41.4-39.6 10.1-16.6 15.8-36 15.8-56.8.3-17.1-3.7-33.4-10.9-48zm-23.2 2.1c-3.1 0-5.6 2.5-5.6 5.6s2.5 5.6 5.6 5.6 5.6-2.5 5.6-5.6-2.5-5.6-5.6-5.6zm17.1 36.6c0-2.9-2.4-5.3-5.3-5.3s-5.3 2.4-5.3 5.3 2.4 5.3 5.3 5.3c3 0 5.3-2.4 5.3-5.3zm-10.2 30.4c0 2.8 2.2 5 5 5s5-2.2 5-5-2.2-5-5-5-5 2.2-5 5zm-4 21.6c-2.6 0-4.8 2.1-4.8 4.8 0 2.6 2.1 4.8 4.8 4.8 2.6 0 4.8-2.1 4.8-4.8 0-2.6-2.1-4.8-4.8-4.8zm-15.2 30.1c2.5 0 4.5-2 4.5-4.5s-2-4.5-4.5-4.5-4.5 2-4.5 4.5c0 2.4 2 4.5 4.5 4.5z" fill="#ff00a5"/><path d="m132.3 198.7c.1.1.1.3 0 .4 0 .1-.1.2-.3.3-3 1.2-5.9 2.9-8.7 4.9s-5.4 4.4-7.8 7c-.1.1-.1.3 0 .5.1.1.3.2.5.1 3-1.6 6.4-2.9 10-3.9s7.5-1.7 11.6-2.1c1.2-.1 2.6-.4 4-1.1 1.3-.7 2.7-1.9 3.8-4 .1-.2.3-.3.4-.3.2 0 .3.1.4.3 1.1 2 2.4 3.2 3.8 4 1.3.7 2.7 1 4 1.1 4.1.4 8 1.1 11.6 2.1s6.9 2.3 10 3.9c.2.1.4 0 .5-.1s.1-.3 0-.5c-2.4-2.7-5-5-7.8-7s-5.7-3.7-8.7-4.9c-.1-.1-.2-.2-.3-.3 0-.1 0-.3 0-.4 7.7-14.8 17.4-36 25.7-61.7s15.2-56.1 17.1-89.1c0-.2 0-.4-.1-.5-.1-.2-.2-.3-.4-.4-8.2-4.8-17-8.7-26.4-11.3s-19.2-4-29.4-4-20.1 1.4-29.4 4c-9.4 2.6-18.2 6.4-26.4 11.3-.2.1-.3.2-.4.4s-.1.3-.1.5c1.9 33 8.8 63.3 17.1 89.1 8.2 25.7 18 46.9 25.7 61.7zm15.2-69.9c-1 3.5-1.5 7.1-1.7 9 0 .1-.1.1-.1.1-.1 0-.1 0-.1-.1-.2-1.9-.7-5.5-1.7-9s-2.6-6.9-4.9-8.4c-.1-.1-.2-.2-.2-.3s0-.2 0-.3l6.6-16.4c.1-.1.2-.2.3-.2s.3.1.3.2l6.6 16.4v.3c0 .1-.1.2-.2.3-2.3 1.5-3.9 4.9-4.9 8.4zm-39.5-76.8c.1 0 .1 0 .1.1.8 2.4 1.8 4.7 3 6.9s2.6 4.2 4.2 6.1c.1.1.1.1.2.1s.2-.1.2-.2c.3-1 1.3-3.9 3.2-7.4 1.8-3.5 4.6-7.8 8.3-11.5.1-.1.2-.1.3 0s.1.2.1.3c-1.7 4.4-2.6 9.7-3.1 14.6s-.5 9.3-.5 11.9c0 .1.1.2.2.2s.2-.1.3-.2c.5-2.6 1.5-7 3.4-11.8 1.9-4.9 4.7-10.2 8.8-14.8.1-.1.2-.1.3 0s.1.2.1.3c-2.8 6-3.7 12.9-3.8 18.7s.6 10.5.8 11.9c0 .1.1.3.2.4s.2.2.3.2c1.7.5 3.5.9 5.4 1.1 1.8.3 3.7.4 5.6.4 8.8 0 16.8-2.8 23.4-7.7 6.6-4.8 11.6-11.6 14.2-19.5 0-.1.1-.1.1-.1.1 0 .1.1.1.1-2.8 41.1-8.3 72.6-14.2 96.2-5.9 23.5-12.3 39.2-16.9 48.6 0 .1-.1.2-.2.2s-.2.1-.3 0c-.3-.1-.6-.1-1-.2-.3 0-.6-.1-1-.1-.1 0-.2-.1-.3-.2s-.1-.2-.1-.4c1.6-12.3 3.5-28.3 5.1-46.9 1.7-18.7 3.1-40 4-62.8 0-.2-.1-.3-.2-.4s-.3-.1-.4-.1c-2 .5-4 .9-6.1 1.2s-4.2.4-6.3.4-4.2-.1-6.3-.4-4.1-.7-6.1-1.2c-.2 0-.3 0-.4.1s-.2.2-.2.4c.8 22.8 2.3 44.1 4 62.8s3.5 34.7 5.1 46.9c0 .1 0 .3-.1.4s-.2.2-.3.2c-.3 0-.6.1-1 .1-.3 0-.6.1-1 .2-.1 0-.2 0-.3 0s-.2-.1-.2-.2c-4.6-9.4-11-25-16.9-48.6-5.9-23.5-11.4-55-14.2-96.2.3 0 .3-.1.4-.1zm-.4-22.6c-.1-.1-.1-.2-.1-.4 2.3-8.4 7.3-15.6 14-20.8s15.1-8.2 24.2-8.2c1.7 0 3.3.1 4.9.3s3.2.5 4.8.9c.1 0 .2.1.2.2s0 .2-.1.2c-.8.6-2.7 2.2-5 4.7s-4.8 5.9-6.9 10.2c-.1.1 0 .2.1.3s.2.1.3 0c4.3-4 8.7-6.7 12.5-8.5s7-2.7 8.8-3.1c.1 0 .2 0 .3.1 0 .1 0 .2-.1.3-1.2.7-3.1 2-5.1 3.9s-4.3 4.4-6.1 7.7c-.1.1 0 .2.1.3s.2.1.3 0c3.8-3.2 7.8-5 10.9-6 3.2-1 5.6-1.3 6.4-1.3h.3c.1 0 .2.1.2.1 2.7 2.5 5.1 5.3 7 8.4s3.4 6.5 4.4 10.2c0 .1 0 .3-.1.4s-.2.1-.4.1c-5.9-2-12.1-3.5-18.4-4.6-6.3-1-12.8-1.6-19.4-1.6s-13.1.5-19.4 1.6c-6.3 1-12.4 2.6-18.4 4.6 0 .1-.1 0-.2 0zm82.9 210c0 .2 0 .3-.2.4-.1.1-.3.1-.5.1-6.1-2.2-13-4-20.4-5.2s-15.4-1.9-23.7-1.9-16.3.7-23.7 1.9-14.3 3-20.4 5.2c-.2.1-.3 0-.5-.1-.1-.1-.2-.3-.2-.4 1.5-7.5 5.1-14.3 11.4-19.3 6.2-5.1 15-8.5 26.7-9.4.2 0 .4 0 .5.1.2.1.3.2.4.4 1.3 2.3 2.5 4.2 3.4 5.7s1.6 2.5 2 3.1c.1.1.2.2.4.2s.3-.1.4-.2c.4-.6 1.1-1.7 2-3.1.9-1.5 2.1-3.4 3.4-5.7.1-.2.2-.3.4-.4s.3-.1.5-.1c11.7.9 20.5 4.4 26.7 9.4 6.2 5.1 9.9 11.8 11.4 19.3z" fill="#320073"/><path d="m135.7 314.4h-12.8v.9l1.6 4.3-9.9 22.7h7.7l1.8-4.7h12.9l1.7 4.7h8.2zm-9.3 17.3 4.3-11 4 10.9z" fill="#ff00a5"/><path d="m168.6 336.4 11.9-1.1v7.1h-23.2v-4.7l7.3-5.5c5.3-3.9 7-5.6 7-8.1 0-2.9-3-3.5-5.5-3.5-3.1 0-5.7.7-9 2.5l-.3.1v-7.4h.1c2.6-1.1 6-1.7 9.4-1.8h.6c8.2 0 12.4 3.1 12.4 9.1 0 4.5-2.6 8.2-8.4 11.9z" fill="#ff00a5"/><path d="m264.7 333.6c0 5.7-4.9 9.1-13 9.1-3.9 0-7.5-.9-9.5-1.7h-.1v-6.7l.3.1c2.1 1.1 5 2.3 9.3 2.3 4.8 0 5.4-1.7 5.4-3.1 0-2-1.7-2.5-3.2-2.5 0 0-.3 0-.4 0-.2 0-.4 0-.7 0l-6.7.6v-6h7c2 0 3.4-1.1 3.4-2.6 0-1.9-1.7-2.9-4.9-2.9-4.2 0-8.2 1.6-9.7 2.3l-.2.1v-6.9h.1c2.3-.9 6.4-1.8 10-1.8 8.2 0 12.5 2.5 12.5 7.2 0 2.9-1.5 4.9-4.4 5.9 3.1 1 4.8 3.3 4.8 6.6z" fill="#ff00a5"/><path d="m197.3 313.8c-8.6 0-14.9 6.2-14.9 14.6 0 8.5 6 14.3 14.8 14.3s14.7-5.9 14.7-14.6c.1-8.5-5.8-14.3-14.6-14.3zm.2 23c-4.4 0-7.2-3.2-7.2-8.2 0-5.3 2.6-8.7 6.9-8.7s7.1 3.3 7.1 8.3c-.1 5.3-2.7 8.6-6.8 8.6z" fill="#ff00a5"/><path d="m226.4 336.4 11.9-1.1v7.1h-23.2v-4.7l7.3-5.5c5.3-3.9 7-5.6 7-8.1 0-2.9-3-3.5-5.5-3.5-3.1 0-5.7.7-9 2.5l-.3.1v-7.4h.1c2.6-1.1 6-1.7 9.4-1.8h.6c8.3 0 12.4 3.1 12.4 9.1 0 4.5-2.6 8.2-8.4 11.9z" fill="#ff00a5"/><path d="m26.7 314.4h7.7l-.4 15.2v12.7h-6.9v-12.7z" fill="#ff00a5"/><path d="m59.5 314.4h7.7l-.8 19.8v8.1h-5.2l-13-16.7-2 16.7h-7.7l4.5-21.4-4.4-5.6v-.9h9.8l11.8 15.7z" fill="#ff00a5"/><path d="m103.9 314.4h7.7l-.4 15.2v12.7h-6.9v-12.7z" fill="#ff00a5"/><path d="m82.9 314.4h-11.1l.4 15 .1 12.9h10.8c10.8 0 17.3-5.4 17.3-14.5-.1-8.5-6.4-13.4-17.5-13.4zm.7 22.3-4.3.2v-16.7h3.8c5.7 0 9.4 3.2 9.4 8 .1 5.1-3.3 8.3-8.9 8.5z" fill="#ff00a5"/><g fill="#320073"><path d="m174.3 277.6h-3.8v-20.2h3.6l.1.1 9.6 13.7v-13.8h3.8v20.2h-3.7l-.1-.1-9.5-13.4z"/><path d="m132.8 277.6h-3.9v-20.2h3.8v.2l6.3 11.4 6.4-11.6h3.7v20.2h-3.8v-12.5l-5.1 8.7h-2.4l-.1-.1-4.9-8.6z"/><path d="m193.8 265h-3.1l1-7.6h3.9z"/><path d="m208 272.1c0-1.6-1.1-2-3.6-2.8l-.6-.2c-2.8-1-6.1-2-6.1-6 0-3.6 2.7-5.9 6.8-5.9 2.9 0 5.3.8 7.1 2.2l.2.2-2.1 3.2-.2-.2c-1.3-1.1-3.3-1.9-4.9-1.9-1.7 0-2.7.8-2.7 2.1s1 1.7 3.6 2.6c3.7 1.3 6.7 2.4 6.7 6.3 0 4.1-2.5 6.2-7.4 6.2-2.7 0-5.3-.7-7.1-2l-.2-.1 1.8-3.5.2.2c1.6 1.3 3.4 1.9 5.3 1.9 1.9-.1 3.2-1 3.2-2.3z"/><path d="m104.8 268.2c1.2-6.4 5.5-10.9 12.2-10.9 1.4 0 2.9.2 4.2.5l-1.1 3.5c-1.2-.4-2.6-.6-3.9-.6-3.8 0-6.2 2.8-6.9 6.8-.9 4.4.5 6.8 4.6 6.8 1.2 0 2.9-.4 4.1-.8l-.2 3.5c-1.6.5-3.5.9-5.4.9-7.2 0-8.5-4.7-7.6-9.7z"/><path d="m83.3 277.6h-3.9l3.9-20.2h3.9z"/><path d="m167.3 277.6h-14.4v-20.2h14v3.5h-10.1v4.9h9.2v3.6h-9.2v4.7h10.5z"/><path d="m101.2 277c-1.6.5-3.5.9-5.4.9-7.1 0-8.4-4.7-7.4-9.7 1.2-6.4 5.5-10.9 12.2-10.9 1.4 0 2.9.2 4.2.5l-1.1 3.5c-1.2-.4-2.6-.6-3.9-.6-3.8 0-6.2 2.8-6.9 6.8-.9 4.4.5 6.8 4.6 6.8 1.2 0 2.9-.4 4.1-.8z"/><path d="m163.5 284.9c-5.9 0-10.2 4.3-10.2 10.3s4.3 10.3 10.2 10.3 10.2-4.3 10.2-10.3-4.2-10.3-10.2-10.3zm0 17c-3.6 0-6.2-2.8-6.2-6.7s2.6-6.7 6.2-6.7 6.2 2.8 6.2 6.7-2.7 6.7-6.2 6.7z"/><path d="m191.8 305c-1.2-3-2.7-5.3-5-7.6 2.6-.9 4.1-3 4.1-5.8 0-4.1-2.5-6.4-7-6.4h-7.5v20.2h3.9v-7h2.4c2.1 1.9 3.5 4 4.9 6.9l.1.2h4.3zm-8.6-10.2h-2.9v-6.1h3.1c2.2 0 3.5 1.1 3.5 3.1.1 1.9-1.3 3-3.7 3z"/><path d="m217.5 285.2h-6.5v20.2h6.6c6.3 0 10.4-3.9 10.4-10.1-.1-6.1-4.3-10.1-10.5-10.1zm-.2 16.6h-2.5v-13.2h2.7c3.8 0 6.4 2.7 6.4 6.6.1 3.9-2.7 6.6-6.6 6.6z"/><path d="m208.5 305.3h-13.8v-20.1h3.8v16.6h10z"/><path d="m39.5 285.2h3.9v20.2h-3.9z"/><path d="m46.1 295.3c0-6.2 4.2-10.4 10.4-10.4 3 0 5.7 1.1 7.6 3.2l.2.2-2.6 2.9-.2-.2c-.9-1-2.6-2.3-5.2-2.3-3.7 0-6.1 2.7-6.1 6.7s2.5 6.6 6.4 6.6c2.1 0 3.7-.6 5.3-1.9l.2-.2 2 3.2-.2.1c-1.6 1.5-4.5 2.5-7.6 2.5-6.1-.1-10.2-4.3-10.2-10.4z"/><path d="m107.3 288.7h-5.6v-3.5h15.1v3.5h-5.7v16.6h-3.8z"/><path d="m143.2 305.1-3.9-14.2-4.2 14.4h-3.2l-.1-.1-6.4-20h4.3v.2l3.9 13.4 3.7-13.6h3.9l.1.2 3.6 13.4 4-13.6h4.1l-.1.3-6.4 19.8h-3.3z"/><path d="m99.6 305.3h-14.4v-20.1h14v3.5h-10.1v4.9h9.2v3.5h-9.2v4.7h10.5z"/><path d="m83 285.2-7.4 8.9c2.8 2.8 5.7 7.2 7.1 10.9l.1.4h-4.2l-.1-.2c-1.2-2.8-3.4-6.2-5.5-8.4l-2.4 2.8v5.8h-3.9v-20.2h3.9v9.2l7.4-9.2z"/><path d="m36.7 305c-1.2-3-2.7-5.3-5-7.6 2.6-.9 4.1-3 4.1-5.8 0-4.1-2.5-6.4-7-6.4h-7.5v20.2h3.9v-7h2.4c2.1 1.9 3.5 4 4.9 6.9l.1.2h4.3zm-8.6-10.2h-2.9v-6.1h3.1c2.2 0 3.5 1.1 3.5 3.1 0 1.9-1.3 3-3.7 3z"/><path d="m253.7 303.1c-1.6 1.5-4.5 2.5-7.6 2.5-6.1 0-10.2-4.1-10.2-10.3s4.2-10.4 10.4-10.4c3 0 5.7 1.1 7.6 3.2l.2.2-2.6 2.9-.2-.2c-.9-1-2.6-2.3-5.2-2.3-3.7 0-6.1 2.7-6.1 6.7s2.5 6.6 6.4 6.6c2.1 0 3.7-.6 5.3-1.9l.2-.2 2 3.2z"/><path d="m4.7 295.3c0 4 2.5 6.6 6.4 6.6 2.1 0 3.7-.6 5.3-1.9l.2-.2 2 3.2-.2.1c-1.6 1.5-4.5 2.5-7.6 2.5-6.1 0-10.2-4.1-10.2-10.3s4.2-10.4 10.4-10.4c3 0 5.7 1.1 7.6 3.2l.2.2-2.6 2.9-.2-.2c-.9-1-2.6-2.3-5.2-2.3-3.6-.1-6.1 2.6-6.1 6.6z"/><path d="m283.7 285.2h-7.4v20.2h3.9v-7h3.1c4.7 0 7.4-2.4 7.4-6.5 0-4.3-2.6-6.7-7-6.7zm-.7 9.6h-2.8v-6.1h3c2.2 0 3.5 1.1 3.5 3.1 0 1.9-1.3 3-3.7 3z"/><path d="m256.6 297.3v-12.1h3.8v11.8c0 3.1 1.5 4.9 4.2 4.9s4.3-1.8 4.3-4.9v-11.9h3.8v12.1c0 5.3-3 8.3-8.1 8.3-5.1.1-8-3-8-8.2z"/></g></svg>